<?xml version="1.0" encoding="UTF-8" standalone="no"?>
<!DOCTYPE svg PUBLIC "-//W3C//DTD SVG 1.1//EN"
 "http://www.w3.org/Graphics/SVG/1.1/DTD/svg11.dtd">
<!-- Generated by graphviz version 2.36.0 (20140111.2315)
 -->
<!-- Title: G Pages: 1 -->
<svg width="417pt" height="188pt"
 viewBox="0.00 0.00 417.20 188.20" xmlns="http://www.w3.org/2000/svg" xmlns:xlink="http://www.w3.org/1999/xlink">
<g id="graph0" class="graph" transform="scale(1 1) rotate(0) translate(21.6 166.6)">
<title>G</title>
<polygon fill="#111111" stroke="none" points="-21.6,21.6 -21.6,-166.6 395.6,-166.6 395.6,21.6 -21.6,21.6"/>
<!-- index.js -->
<g id="node1" class="node"><title>index.js</title>
<path fill="none" stroke="#c6c5fe" d="M56.3333,-83.5C56.3333,-83.5 7.66667,-83.5 7.66667,-83.5 3.83333,-83.5 0,-79.6667 0,-75.8333 0,-75.8333 0,-68.1667 0,-68.1667 0,-64.3333 3.83333,-60.5 7.66667,-60.5 7.66667,-60.5 56.3333,-60.5 56.3333,-60.5 60.1667,-60.5 64,-64.3333 64,-68.1667 64,-68.1667 64,-75.8333 64,-75.8333 64,-79.6667 60.1667,-83.5 56.3333,-83.5"/>
<text text-anchor="middle" x="32" y="-68.3" font-family="Arial" font-size="14.00" fill="#c6c5fe">index.js</text>
</g>
<!-- lib/master.js -->
<g id="node2" class="node"><title>lib/master.js</title>
<path fill="none" stroke="#c6c5fe" d="M183.833,-83.5C183.833,-83.5 108.167,-83.5 108.167,-83.5 104.333,-83.5 100.5,-79.6667 100.5,-75.8333 100.5,-75.8333 100.5,-68.1667 100.5,-68.1667 100.5,-64.3333 104.333,-60.5 108.167,-60.5 108.167,-60.5 183.833,-60.5 183.833,-60.5 187.667,-60.5 191.5,-64.3333 191.5,-68.1667 191.5,-68.1667 191.5,-75.8333 191.5,-75.8333 191.5,-79.6667 187.667,-83.5 183.833,-83.5"/>
<text text-anchor="middle" x="146" y="-68.3" font-family="Arial" font-size="14.00" fill="#c6c5fe">lib/master.js</text>
</g>
<!-- index.js&#45;&gt;lib/master.js -->
<g id="edge1" class="edge"><title>index.js&#45;&gt;lib/master.js</title>
<path fill="none" stroke="#757575" d="M64.1982,-72C72.287,-72 81.2409,-72 90.1558,-72"/>
<polygon fill="#757575" stroke="#757575" points="90.1562,-75.5001 100.156,-72 90.1561,-68.5001 90.1562,-75.5001"/>
</g>
<!-- lib/utils/manager.js -->
<g id="node3" class="node"><title>lib/utils/manager.js</title>
<path fill="none" stroke="#cfffac" d="M359.333,-145.5C359.333,-145.5 242.667,-145.5 242.667,-145.5 238.833,-145.5 235,-141.667 235,-137.833 235,-137.833 235,-130.167 235,-130.167 235,-126.333 238.833,-122.5 242.667,-122.5 242.667,-122.5 359.333,-122.5 359.333,-122.5 363.167,-122.5 367,-126.333 367,-130.167 367,-130.167 367,-137.833 367,-137.833 367,-141.667 363.167,-145.5 359.333,-145.5"/>
<text text-anchor="middle" x="301" y="-130.3" font-family="Arial" font-size="14.00" fill="#cfffac">lib/utils/manager.js</text>
</g>
<!-- lib/master.js&#45;&gt;lib/utils/manager.js -->
<g id="edge2" class="edge"><title>lib/master.js&#45;&gt;lib/utils/manager.js</title>
<path fill="none" stroke="#757575" d="M166.829,-83.3398C182.942,-92.2329 206.451,-104.488 228,-113 233.961,-115.354 240.291,-117.58 246.628,-119.639"/>
<polygon fill="#757575" stroke="#757575" points="245.951,-123.094 256.54,-122.732 248.036,-116.412 245.951,-123.094"/>
</g>
<!-- lib/utils/messenger.js -->
<g id="node4" class="node"><title>lib/utils/messenger.js</title>
<path fill="none" stroke="#cfffac" d="M366.333,-104.5C366.333,-104.5 235.667,-104.5 235.667,-104.5 231.833,-104.5 228,-100.667 228,-96.8333 228,-96.8333 228,-89.1667 228,-89.1667 228,-85.3333 231.833,-81.5 235.667,-81.5 235.667,-81.5 366.333,-81.5 366.333,-81.5 370.167,-81.5 374,-85.3333 374,-89.1667 374,-89.1667 374,-96.8333 374,-96.8333 374,-100.667 370.167,-104.5 366.333,-104.5"/>
<text text-anchor="middle" x="301" y="-89.3" font-family="Arial" font-size="14.00" fill="#cfffac">lib/utils/messenger.js</text>
</g>
<!-- lib/master.js&#45;&gt;lib/utils/messenger.js -->
<g id="edge3" class="edge"><title>lib/master.js&#45;&gt;lib/utils/messenger.js</title>
<path fill="none" stroke="#757575" d="M191.665,-78.1305C199.932,-79.2652 208.803,-80.4827 217.779,-81.7148"/>
<polygon fill="#757575" stroke="#757575" points="217.549,-85.2159 227.932,-83.1083 218.501,-78.2809 217.549,-85.2159"/>
</g>
<!-- lib/utils/options.js -->
<g id="node5" class="node"><title>lib/utils/options.js</title>
<path fill="none" stroke="#cfffac" d="M354.333,-63.5C354.333,-63.5 247.667,-63.5 247.667,-63.5 243.833,-63.5 240,-59.6667 240,-55.8333 240,-55.8333 240,-48.1667 240,-48.1667 240,-44.3333 243.833,-40.5 247.667,-40.5 247.667,-40.5 354.333,-40.5 354.333,-40.5 358.167,-40.5 362,-44.3333 362,-48.1667 362,-48.1667 362,-55.8333 362,-55.8333 362,-59.6667 358.167,-63.5 354.333,-63.5"/>
<text text-anchor="middle" x="301" y="-48.3" font-family="Arial" font-size="14.00" fill="#cfffac">lib/utils/options.js</text>
</g>
<!-- lib/master.js&#45;&gt;lib/utils/options.js -->
<g id="edge4" class="edge"><title>lib/master.js&#45;&gt;lib/utils/options.js</title>
<path fill="none" stroke="#757575" d="M191.665,-66.1614C203.566,-64.6057 216.719,-62.8864 229.636,-61.1979"/>
<polygon fill="#757575" stroke="#757575" points="230.455,-64.6207 239.917,-59.854 229.548,-57.6797 230.455,-64.6207"/>
</g>
<!-- lib/utils/terminate.js -->
<g id="node6" class="node"><title>lib/utils/terminate.js</title>
<path fill="none" stroke="#cfffac" d="M361.333,-22.5C361.333,-22.5 240.667,-22.5 240.667,-22.5 236.833,-22.5 233,-18.6667 233,-14.8333 233,-14.8333 233,-7.16667 233,-7.16667 233,-3.33333 236.833,0.5 240.667,0.5 240.667,0.5 361.333,0.5 361.333,0.5 365.167,0.5 369,-3.33333 369,-7.16667 369,-7.16667 369,-14.8333 369,-14.8333 369,-18.6667 365.167,-22.5 361.333,-22.5"/>
<text text-anchor="middle" x="301" y="-7.3" font-family="Arial" font-size="14.00" fill="#cfffac">lib/utils/terminate.js</text>
</g>
<!-- lib/master.js&#45;&gt;lib/utils/terminate.js -->
<g id="edge5" class="edge"><title>lib/master.js&#45;&gt;lib/utils/terminate.js</title>
<path fill="none" stroke="#757575" d="M167.526,-60.6141C183.636,-51.987 206.808,-40.25 228,-32 233.972,-29.6751 240.309,-27.4679 246.65,-25.4191"/>
<polygon fill="#757575" stroke="#757575" points="248.056,-28.6473 256.566,-22.3358 245.978,-21.963 248.056,-28.6473"/>
</g>
</g>
</svg>
